<svg viewBox="0 0 50 50" xmlns="http://www.w3.org/2000/svg"><path d="m7.90625 1.96875c-.042969.007813-.085937.019531-.125.03125-.464844.105469-.792969.523438-.78125 1v9h9c.359375.003906.695313-.183594.878906-.496094.179688-.3125.179688-.695312 0-1.007812-.183593-.3125-.519531-.5-.878906-.496094h-5.6875c3.789063-3.707031 8.964844-6 14.6875-6 11.609375 0 21 9.390625 21 21s-9.390625 21-21 21-21-9.390625-21-21c0-3.472656.855469-6.742187 2.34375-9.625l-1.78125-.90625c-1.632812 3.15625-2.5625 6.738281-2.5625 10.53125 0 12.691406 10.308594 23 23 23s23-10.308594 23-23-10.308594-23-23-23c-6.226562 0-11.859375 2.503906-16 6.53125v-5.53125c.011719-.289062-.105469-.566406-.3125-.761719-.210937-.199218-.496094-.296875-.78125-.269531zm17.09375 3.03125c-.550781 0-1 .449219-1 1s.449219 1 1 1 1-.449219 1-1-.449219-1-1-1zm9.5 2.53125c-.550781 0-1 .449219-1 1s.449219 1 1 1 1-.449219 1-1-.449219-1-1-1zm6.96875 6.96875c-.550781 0-1 .449219-1 1s.449219 1 1 1 1-.449219 1-1-.449219-1-1-1zm-23.09375 2.40625c-2.773437 0-4.75 1.808594-4.75 4.40625v.03125h2.0625v-.03125c0-1.503906 1.039063-2.5 2.59375-2.5 1.453125 0 2.5625.960938 2.5625 2.25 0 1.035156-.457031 1.785156-2.34375 3.75l-4.75 4.9375v1.59375h9.5v-1.96875h-6.46875v-.15625l3.15625-3.1875c2.363281-2.390625 3.0625-3.601562 3.0625-5.09375 0-2.324219-1.949219-4.03125-4.625-4.03125zm13.21875.34375c-2.511719 3.761719-4.613281 7.039063-5.875 9.34375v2.03125h6.875v2.71875h2.09375v-2.71875h1.96875v-1.96875h-1.96875v-9.40625zm.90625 1.9375h.125v7.53125h-4.8125v-.15625c1.660156-2.882812 3.292969-5.355469 4.6875-7.375zm-26.5 4.8125c-.550781 0-1 .449219-1 1s.449219 1 1 1 1-.449219 1-1-.449219-1-1-1zm38 0c-.550781 0-1 .449219-1 1s.449219 1 1 1 1-.449219 1-1-.449219-1-1-1zm-35.46875 9.5c-.550781 0-1 .449219-1 1s.449219 1 1 1 1-.449219 1-1-.449219-1-1-1zm32.9375 0c-.550781 0-1 .449219-1 1s.449219 1 1 1 1-.449219 1-1-.449219-1-1-1zm-25.96875 6.96875c-.550781 0-1 .449219-1 1s.449219 1 1 1 1-.449219 1-1-.449219-1-1-1zm19 0c-.550781 0-1 .449219-1 1s.449219 1 1 1 1-.449219 1-1-.449219-1-1-1zm-9.5 2.53125c-.550781 0-1 .449219-1 1s.449219 1 1 1 1-.449219 1-1-.449219-1-1-1z"/></svg>